<svg aria-hidden="true" style="position: absolute; width: 0; height: 0; overflow: hidden;" version="1.1" xmlns="http://www.w3.org/2000/svg" xmlns:xlink="http://www.w3.org/1999/xlink">
<defs>
<symbol id="icon-menu-bar" viewBox="0 0 32 32">
<path d="M4 10h24c1.104 0 2-0.896 2-2s-0.896-2-2-2h-24c-1.104 0-2 0.896-2 2s0.896 2 2 2zM28 14h-24c-1.104 0-2 0.896-2 2s0.896 2 2 2h24c1.104 0 2-0.896 2-2s-0.896-2-2-2zM28 22h-24c-1.104 0-2 0.896-2 2s0.896 2 2 2h24c1.104 0 2-0.896 2-2s-0.896-2-2-2z"></path>
</symbol>
<symbol id="icon-sear" viewBox="0 0 32 32">
<path d="M20.151 0c-6.534 0-11.849 5.315-11.849 11.849s5.315 11.849 11.849 11.849 11.849-5.315 11.849-11.849-5.317-11.849-11.849-11.849zM20.151 21.543c-5.345 0-9.694-4.35-9.694-9.694s4.347-9.694 9.694-9.694 9.694 4.35 9.694 9.694-4.35 9.694-9.694 9.694z"></path>
<path d="M-0 30.476l10.771-10.771 1.523 1.523-10.771 10.771-1.523-1.523z"></path>
</symbol>
<symbol id="icon-cart" viewBox="0 0 32 32">
<path stroke-linejoin="miter" stroke-linecap="butt" stroke-miterlimit="10" stroke-width="1.3813" d="M2.671 6.446h5.617l4.006 15.908"></path>
<path stroke-linejoin="miter" stroke-linecap="butt" stroke-miterlimit="10" stroke-width="1.3813" d="M15.655 24.61c0 1.475-1.196 2.671-2.671 2.671s-2.671-1.196-2.671-2.671c0-1.475 1.196-2.671 2.671-2.671s2.671 1.196 2.671 2.671z"></path>
<path stroke-linejoin="miter" stroke-linecap="butt" stroke-miterlimit="10" stroke-width="1.3813" d="M28.455 24.61c0 1.475-1.196 2.671-2.671 2.671s-2.671-1.196-2.671-2.671c0-1.475 1.196-2.671 2.671-2.671s2.671 1.196 2.671 2.671z"></path>
<path stroke-linejoin="miter" stroke-linecap="butt" stroke-miterlimit="10" stroke-width="1.3813" d="M15.517 23.758h7.735"></path>
<path stroke-linejoin="miter" stroke-linecap="butt" stroke-miterlimit="10" stroke-width="1.3813" d="M11.58 19.568h14.204l3.131-9.991h-19.845"></path>
</symbol>
<symbol id="icon-user" viewBox="0 0 32 32">
<path d="M16.117 17.5c6.318 0.035 12.27 4.191 14.306 10.744 0.069 0.223 0.169 0.453 0.1 0.663-0.16 0.485-0.831 0.37-1.041-0.321-1.411-4.577-5.046-8.5-9.799-9.666-4.214-1.033-8.932-0.19-12.171 2.608-2.131 1.841-3.72 4.366-4.463 7.036 0 0-0.358 0.694-0.816 0.323-0.465-0.378 0.030-1.238 0.355-2.037 2.133-5.238 7.101-9.246 13.199-9.35 0.11-0.002 0.22-0.002 0.33-0.002zM16.091 3c2.97 0.028 5.773 2.306 6.341 5.27 0.555 2.894-1.131 6.066-3.854 7.218-3.017 1.277-6.912-0.157-8.37-3.136-1.506-3.076-0.082-7.261 3.095-8.745 0.869-0.406 1.825-0.611 2.788-0.607zM16.013 4c-2.49 0.024-4.828 1.907-5.346 4.358-0.522 2.473 0.902 5.22 3.242 6.21 3.043 1.288 7.077-0.819 7.581-4.264 0.445-3.038-1.998-6.207-5.299-6.302-0.059-0.001-0.119-0.002-0.178-0.002z"></path>
</symbol>
</defs>
</svg>
